<?xml version="1.0" encoding="UTF-8"?> <!-- Generator: Adobe Illustrator 22.0.0, SVG Export Plug-In . SVG Version: 6.00 Build 0) --> <svg xmlns="http://www.w3.org/2000/svg" xmlns:xlink="http://www.w3.org/1999/xlink" version="1.1" id="Layer_1" x="0px" y="0px" viewBox="0 0 250 100" style="enable-background:new 0 0 250 100;" xml:space="preserve"> <style type="text/css"> .st0{fill:#002B5C;} .st1{fill:#ED1849;} .st2{fill:#AA182C;} .st3{fill:#BC4547;} .st4{fill:#FFFFFF;} </style> <g> <path class="st0" d="M143.1,36.8l-4.9,4.7c-3.3-3.5-7.1-5.3-11.2-5.3c-3.5,0-6.5,1.2-8.9,3.6c-2.4,2.4-3.6,5.3-3.6,8.9 c0,2.4,0.5,4.6,1.6,6.5c1.1,1.9,2.6,3.4,4.5,4.5c1.9,1.1,4.1,1.6,6.5,1.6c2,0,3.9-0.4,5.6-1.1c1.7-0.8,3.5-2.1,5.5-4.1l4.7,4.9 c-2.7,2.6-5.3,4.5-7.7,5.5c-2.4,1-5.2,1.5-8.2,1.5c-5.7,0-10.4-1.8-14-5.4c-3.6-3.6-5.4-8.2-5.4-13.9c0-3.7,0.8-6.9,2.5-9.7 c1.7-2.8,4-5.1,7.1-6.9c3.1-1.7,6.4-2.6,10-2.6c3,0,5.9,0.6,8.7,1.9C138.7,32.6,141.1,34.5,143.1,36.8z"></path> <path class="st0" d="M167.5,36.3c-3.4,0-6.2,1.2-8.6,3.5c-2.3,2.4-3.5,5.4-3.5,9c0,4.1,1.5,7.3,4.4,9.6c2.3,1.8,4.9,2.8,7.8,2.8 c3.3,0,6.1-1.2,8.5-3.6c2.3-2.4,3.5-5.3,3.5-8.8c0-3.5-1.2-6.4-3.5-8.9C173.7,37.5,170.8,36.3,167.5,36.3z M167.5,29.4 c5.2,0,9.6,1.9,13.4,5.6c3.7,3.8,5.6,8.3,5.6,13.7c0,5.4-1.8,9.9-5.5,13.6c-3.7,3.7-8.1,5.6-13.4,5.6c-5.5,0-10.1-1.9-13.7-5.7 c-3.6-3.8-5.5-8.3-5.5-13.6c0-3.5,0.8-6.7,2.5-9.7c1.7-2.9,4-5.3,7-7C160.9,30.3,164.1,29.4,167.5,29.4z"></path> <polygon class="st0" points="193.4,29.3 200.4,29.3 216.9,54.6 216.9,29.3 224.2,29.3 224.2,67.8 217.2,67.8 200.7,42.5 200.7,67.8 193.4,67.8 "></polygon> <g> <path class="st1" d="M95,80.9c-2.2,5.3-8.2,7.7-13.5,5.6L37.5,68.1c-5.3-2.2-7.7-8.2-5.6-13.5l18.3-44.1c2.2-5.3,8.2-7.7,13.5-5.6 l44.1,18.3c3.5,1.4,6.1,4.6,6.2,8.1c0,0.3-3.8,1.8-6.8,8.2c-3.3,7.1-1.2,14.7-1.2,14.7L95,80.9z"></path> <path class="st3" d="M27.3,44.5c-1.9,0-3.7,1.1-4.4,3l-8.5,20.5c-1,2.5,0.1,5.3,2.6,6.3l20.5,8.5c0.6,0.3,1.2,0.4,1.8,0.4 c1.9,0,3.7-1.1,4.4-3l3.4-8.1l-9.7-4c-5.3-2.2-7.7-8.2-5.6-13.5l3-7.3l-5.8-2.4C28.6,44.7,28,44.5,27.3,44.5z"></path> <path class="st3" d="M38.2,19.3c-1.1,0-2.2,0.7-2.7,1.8l-5.1,12.4c-0.6,1.5,0.1,3.2,1.6,3.8l6.1,2.6l7.4-17.7l-6.1-2.6 C38.9,19.4,38.5,19.3,38.2,19.3z"></path> <path class="st3" d="M100,10.4c-1.9,0-3.7,1.1-4.4,3l-1.7,4.2l13.9,5.8c3.5,1.4,6.1,4.6,6.2,8.1c0,0,0,0,0,0c4-2.8,8.2-3.7,10.3-4 l0.7-1.8c1-2.5-0.1-5.3-2.6-6.3l-20.5-8.5C101.3,10.5,100.7,10.4,100,10.4z M112.9,32.2c-0.8,0.6-2.1,1.7-3.3,3.4 C110.6,34.3,111.7,33.2,112.9,32.2z M107.5,39.1c-0.1,0.2-0.2,0.3-0.2,0.5c-1.1,2.4-1.6,4.9-1.8,7.1l0,0 C105.8,43.8,106.5,41.2,107.5,39.1z"></path> <path class="st3" d="M94.5,82c-1.9,3.3-5.3,5.3-9,5.3c-1.3,0-2.7-0.3-4-0.8l-2.4-1l-1,2.3c-0.4,1.1,0.1,2.3,1.1,2.8l9,3.7 c0.3,0.1,0.5,0.2,0.8,0.2c0.8,0,1.6-0.5,1.9-1.3l3.7-9C95.1,83.4,94.9,82.6,94.5,82z"></path> <path class="st2" d="M82.8,27.4L82.8,27.4c-0.9,0-1.8,0.5-2.2,1.4l-4.2,10c-0.1,0.3-0.2,0.6-0.2,0.9v0.1c0,0.9,0.6,1.8,1.4,2.1 l10,4.2c0.3,0.1,0.6,0.2,0.9,0.2c0.9,0,1.8-0.5,2.2-1.4l1.5-3.5l-2.6-1.1c-2.5-1-3.6-3.8-2.6-6.3l1.7-4.2l-5.1-2.1 C83.4,27.5,83.1,27.4,82.8,27.4z"></path> <path class="st2" d="M88.8,29.7l-1.7,4.2c-1,2.4,0.1,5.3,2.6,6.3l2.6,1.1l2.7-6.5c0.1-0.3,0.2-0.5,0.2-0.8v-0.2 c0-0.9-0.6-1.7-1.4-2.1L88.8,29.7z"></path> <path class="st2" d="M34.9,47.3l-3,7.3c-2.2,5.3,0.3,11.3,5.6,13.5l9.7,4l5.2-12.4c0.2-0.6,0.4-1.1,0.4-1.7v-0.3 c-0.1-1.8-1.2-3.5-3-4.3L34.9,47.3z"></path> <path class="st2" d="M45.4,22.1l-7.4,17.7l6.2,2.6c0.4,0.2,0.7,0.2,1.1,0.2c1.1,0,2.2-0.7,2.7-1.8l5.1-12.4 c0.6-1.5-0.1-3.2-1.6-3.8L45.4,22.1z"></path> <path class="st2" d="M83.8,77.5c-0.8,0-1.6,0.5-1.9,1.3l-2.8,6.7l2.4,1c1.3,0.5,2.6,0.8,4,0.8c3.7,0,7.1-2,9-5.3 c-0.2-0.3-0.5-0.5-0.8-0.6l-9-3.7C84.4,77.5,84.1,77.5,83.8,77.5z"></path> <path class="st2" d="M93.9,17.5l-5,12.2l4.9,2c0.9,0.4,1.4,1.2,1.4,2.1V34c0,0.3-0.1,0.5-0.2,0.8l-2.7,6.5l13.2,5.5 c0.2-2.2,0.7-4.7,1.8-7.1c0.1-0.2,0.2-0.3,0.2-0.5c0.6-1.3,1.3-2.4,2.1-3.4c1.3-1.7,2.5-2.8,3.3-3.4c0.4-0.3,0.7-0.6,1.1-0.8 c0,0,0,0,0,0c-0.2-3.5-2.8-6.6-6.2-8.1L93.9,17.5z"></path> <path class="st4" d="M56.4,4.8c0,0,1.6-0.9,3.3-0.9c2.2,0,3.7,0.6,3.7,0.6l5.8,2.8l0,48.4l18.6,0l0.1,12.2l-31.4,0L56.4,4.8z"></path> <rect x="93.4" y="29.5" class="st4" width="7.2" height="38.2"></rect> </g> <g> <g> <path class="st0" d="M233.9,26.7c0,2-1.6,3.6-3.6,3.6c-2,0-3.6-1.6-3.6-3.6c0-2,1.6-3.5,3.7-3.5 C232.3,23.2,233.9,24.7,233.9,26.7z M227.5,26.7c0,1.6,1.2,2.8,2.8,2.8c1.5,0,2.7-1.2,2.7-2.8c0-1.6-1.2-2.8-2.7-2.8 C228.7,23.9,227.5,25.2,227.5,26.7z M229.7,28.5h-0.8V25c0.3,0,0.8-0.1,1.4-0.1c0.7,0,1,0.1,1.2,0.3c0.2,0.2,0.4,0.4,0.4,0.8 c0,0.4-0.3,0.7-0.7,0.8v0c0.3,0.1,0.5,0.4,0.6,0.9c0.1,0.5,0.2,0.7,0.3,0.9h-0.9c-0.1-0.1-0.2-0.4-0.3-0.9 c-0.1-0.4-0.3-0.5-0.7-0.5h-0.4V28.5z M229.7,26.6h0.4c0.5,0,0.8-0.2,0.8-0.5c0-0.3-0.2-0.5-0.8-0.5c-0.2,0-0.4,0-0.5,0V26.6z"></path> </g> </g> </g> </svg> 